<?xml version="1.0" encoding="UTF-8"?><svg id="Capa_1" xmlns="http://www.w3.org/2000/svg" xmlns:xlink="http://www.w3.org/1999/xlink" viewBox="0 0 1080 1080"><defs><style>.cls-1{fill:url(#Degradado_sin_nombre_15);}</style><linearGradient id="Degradado_sin_nombre_15" x1="69.36" y1="591.14" x2="971.33" y2="591.14" gradientTransform="matrix(1, 0, 0, 1, 0, 0)" gradientUnits="userSpaceOnUse"><stop offset="0" stop-color="gray"/><stop offset=".16" stop-color="#626262"/><stop offset=".42" stop-color="#383838"/><stop offset=".66" stop-color="#191919"/><stop offset=".86" stop-color="#060606"/><stop offset="1" stop-color="#000"/></linearGradient></defs><path class="cls-1" d="M634.77,819.96c-3.37,7.28-14.01,6.52-16.22-1.19-7.4-25.8-16.52-51.12-27.37-75.93-38.88-88.89-145.9-208.87-183.9-246.87l13.5,86.11c58.59,58.59,146.62,179.75,166.34,369.09,2.53,24.29,35.32,29.91,45.58,7.75L969.9,230.86c5.35-11.56-5.16-24.13-17.48-20.9L93.7,434.88c-31.58,8.27-32.73,52.33-1.76,62.64,137.18,45.69,320.18,178.3,320.18,178.3-8.9-62.44-7.29-75.81-7.29-75.81,0,0-111.64-89.67-222.12-130.03l126.28-33.07,555.79-135.28-230.02,518.34Z"/></svg>