<?xml version="1.0" encoding="UTF-8"?><svg id="Capa_1" xmlns="http://www.w3.org/2000/svg" viewBox="0 0 1080 1080"><polygon points="301.79 546.87 281.91 467.08 240.29 467.08 193.13 606.29 234.67 606.3 263 522.33 281.45 606.25 322.56 606.24 370.23 467.08 329.11 467.08 301.79 546.87"/><polygon points="934.63 467.09 883.15 538.73 862.12 467.17 819.13 467.15 864.87 610.37 985.41 467.1 934.63 467.09"/><path d="M175.57,467.08h41.15l-47.2,139.17h-41.15l47.2-139.17Z"/><path d="M514.52,515.59c0,32.77-26.01,54.26-64.32,54.26h-22.02l10.85-36.59h13.7c14.89,0,20.37-5.07,20.37-15.93,0-9.15-6.81-13.83-18.3-13.83h-31.11l-34.98,102.75h-42.08l47.2-139.16h68.35c36.65,0,52.34,21.49,52.34,48.51Z"/><path d="M593.16,569.85l14.52,36.36h46.34l-17.51-41.11c21.98-8.05,35.57-25.83,35.57-49.51,0-27.02-15.68-48.51-52.34-48.51h-68.35l-47.2,139.16h42.08l12.39-36.4h34.5Zm-22.05-36.59h-.03l10.18-29.77h31.11c11.49,0,18.3,4.69,18.3,13.83,0,10.86-5.48,15.93-20.37,15.93h-39.19Z"/><path d="M731.78,610.37c-20.53,0-33.92-2.97-43.35-11.69-9.43-8.71-17.29-22.33-11.05-41.92l13.77-42.9c7.04-19.61,9.37-28.08,21.31-36.97,11.93-8.89,28.17-13.34,48.7-13.34s35.45,4.45,44.76,13.34c9.31,8.89,14.76,23.06,9.57,40.07l-14.06,43.8c-6.6,18.6-9.31,27.81-21.13,36.52-11.82,8.71-27.99,13.07-48.52,13.07Zm5.93-36.4c7.88,0,11.46-.71,15.07-3.84,3.61-3.13,4.99-6.7,9.13-17.08l11.4-31.6c2.6-7.61,.21-13.54-2.49-16.73-2.7-3.18-8-4.77-15.87-4.77s-11.6,1.43-15.25,4.6c-3.65,3.18-6.22,7.89-9.09,16.89l-11.4,31.6c-2.95,9.75-.19,13.1,2.56,16.23,2.75,3.13,8.06,4.7,15.94,4.7Z"/></svg>